<svg width="15" height="15" viewBox="0 0 15 15" fill="none" xmlns="http://www.w3.org/2000/svg">
<path fill-rule="evenodd" clip-rule="evenodd" d="M0 7.5C0 11.6407 3.35926 15 7.5 15C11.6407 15 15 11.6407 15 7.5C15 3.35926 11.6407 0 7.5 0C3.35926 0 0 3.35926 0 7.5Z" fill="#DA1414"/>
<path fill-rule="evenodd" clip-rule="evenodd" d="M5.03033 11.0303C4.73744 11.3232 4.26256 11.3232 3.96967 11.0303C3.67678 10.7374 3.67678 10.2626 3.96967 9.96967L6.43934 7.5L3.96967 5.03033C3.67678 4.73744 3.67678 4.26256 3.96967 3.96967C4.26256 3.67678 4.73744 3.67678 5.03033 3.96967L7.5 6.43934L9.96967 3.96967C10.2626 3.67678 10.7374 3.67678 11.0303 3.96967C11.3232 4.26256 11.3232 4.73744 11.0303 5.03033L8.56066 7.5L11.0303 9.96967C11.3232 10.2626 11.3232 10.7374 11.0303 11.0303C10.7374 11.3232 10.2626 11.3232 9.96967 11.0303L7.5 8.56066L5.03033 11.0303Z" fill="white"/>
</svg>
