<svg width="15" height="15" viewBox="0 0 15 15" fill="none" xmlns="http://www.w3.org/2000/svg">
<path fill-rule="evenodd" clip-rule="evenodd" d="M0 7.5C0 11.6407 3.35926 15 7.5 15C11.6407 15 15 11.6407 15 7.5C15 3.35926 11.6407 0 7.5 0C3.35926 0 0 3.35926 0 7.5Z" fill="#2756FD"/>
<path d="M6.5625 8.4375C6.5625 8.95312 6.98438 9.375 7.5 9.375C8.01562 9.375 8.4375 8.95312 8.4375 8.4375V4.6875C8.4375 4.17187 8.01562 3.75 7.5 3.75C6.98438 3.75 6.5625 4.17187 6.5625 4.6875V8.4375Z" fill="white"/>
<path d="M7.5 12.1873C8.01777 12.1873 8.4375 11.7676 8.4375 11.2498C8.4375 10.7321 8.01777 10.3123 7.5 10.3123C6.98223 10.3123 6.5625 10.7321 6.5625 11.2498C6.5625 11.7676 6.98223 12.1873 7.5 12.1873Z" fill="white"/>
</svg>
