<svg width="159" height="42" viewBox="0 0 159 42" fill="none" xmlns="http://www.w3.org/2000/svg">
<path d="M155.755 9.58945C153.523 7.00098 150.266 5.68958 146.074 5.68958C142.547 5.68958 139.501 6.53867 137.017 8.21396C134.548 9.88011 132.676 12.1756 131.456 15.0387C130.284 17.7828 129.691 20.9183 129.691 24.3559C129.691 26.8391 130.232 29.1369 131.293 31.1898C132.39 33.3045 134.026 34.9981 136.157 36.2226C138.256 37.4287 140.762 38.0398 143.602 38.0398C146.387 38.0398 149.01 37.1884 151.397 35.5131C153.711 33.8904 155.576 31.7025 156.945 29.0087C158.306 26.3287 158.995 23.4061 158.995 20.3255C159 15.6979 157.908 12.0864 155.755 9.58945ZM145.996 22.9735C145.769 23.7219 145.467 24.3124 145.094 24.7243C145.037 24.7884 144.833 25.0036 144.707 25.0036C144.504 25.0036 144.485 24.9784 144.423 24.8914C144.3 24.7152 144.096 24.2758 144.096 23.2916C144.096 21.5362 144.366 20.0807 144.9 18.9638C145.032 18.6869 145.373 18.0415 145.694 18.0415C145.721 18.0415 145.737 18.0437 145.742 18.0437C145.739 18.046 145.813 18.1033 145.916 18.2841C146.229 18.8288 146.38 19.4833 146.38 20.2866C146.38 21.2181 146.252 22.1221 145.996 22.9735Z" fill="white"/>
<path d="M94.132 6.40135L92.6878 6.23428C87.131 5.59345 81.8831 5.27075 77.0906 5.27075C74.017 5.27075 71.2317 5.40349 68.808 5.66211L67.3615 5.81774L67.0068 7.22984C66.9084 7.61891 66.8672 8.11098 66.8672 8.87996C66.8672 10.1113 67.0297 11.4982 67.3501 13.0041C67.6865 14.5879 68.0985 15.8077 68.6089 16.7346L69.268 17.9293L70.6275 17.8057C71.8793 17.6913 72.9687 17.5952 73.8911 17.5151C73.6485 19.3849 73.4425 21.3646 73.2777 23.429C73.0328 26.4843 72.9092 29.3795 72.9092 32.0343V33.4418V34.3344L73.5546 34.9524C74.3877 35.7488 75.8204 36.4125 78.1983 37.1014C80.3726 37.7331 82.0616 38.0398 83.3615 38.0398C83.7575 38.0398 84.1443 37.994 84.5127 37.9024L86.0576 37.5179L86.0965 35.9273C86.172 32.9246 86.3368 29.5855 86.5863 26.0037C86.7945 23.0033 87.0394 19.7351 87.3186 17.3182C87.6574 17.3091 88.0556 17.3022 88.5156 17.3022C89.946 17.3022 91.3764 17.3617 92.4384 17.4624L94.4592 17.657L94.711 15.6407C94.8735 14.343 94.9559 13.1941 94.9559 12.226C94.9559 10.5965 94.7957 9.11341 94.4776 7.81345L94.132 6.40135Z" fill="white"/>
<path d="M127.511 7.48616L127.047 6.34183L125.82 6.19764C121.826 5.72847 116.519 5.46069 111.262 5.46069C106.881 5.46069 102.654 5.63005 99.6675 5.92758L98.1089 6.08321L97.8205 7.62347C97.7725 7.88667 97.729 8.42222 97.3536 13.9653C97.1156 17.4555 96.8478 21.4103 96.6922 23.287C96.3832 26.9741 96.2413 30.446 96.2665 33.6112L96.2734 34.4946L96.9119 35.1057C97.7747 35.9296 99.3379 36.4079 102.025 37.1815L102.283 37.2547L102.869 37.4241C104.515 37.9024 105.508 38.1908 106.803 38.1908C107.149 38.1908 107.511 38.145 107.879 38.0535L109.401 37.6735L109.461 36.1058C109.612 32.1922 109.827 28.5922 110.101 25.4086C110.326 22.7881 110.639 20.1356 111.035 17.5059L111.816 17.4693C112.283 17.4418 112.836 17.4029 113.5 17.3503C113.599 17.3434 113.722 17.3342 113.862 17.3274C113.548 19.6229 113.296 21.9871 113.111 24.381C112.855 27.6652 112.738 30.7572 112.763 33.5723L112.772 34.4534L113.411 35.0622C114.235 35.8495 115.104 36.5544 117.402 37.2135C119.547 37.8292 121.993 38.1496 123.302 38.1496C123.648 38.1496 124.007 38.1038 124.376 38.0123L125.909 37.6324L125.96 36.0532C126.111 31.4278 126.381 27.1915 126.767 23.4656C127.152 19.7465 127.749 15.8604 128.543 11.9147L128.621 11.5302L128.553 11.1434C128.466 10.688 127.91 8.4657 127.511 7.48616Z" fill="white"/>
<path d="M56.5511 23.0445C58.1189 21.2685 58.0433 18.9798 57.414 17.4075C57.3911 17.3503 57.3659 17.2885 57.3407 17.2336C56.3932 15.2242 53.3196 10.585 45.03 9.52539C44.7142 0.00686569 34.4931 0 30.6046 0H29.7578C22.3929 0 15.575 1.10084 15.3645 8.96238C7.345 10.1479 4.12943 15.1578 3.10182 17.3343C2.53424 18.5564 2.08108 21.1838 3.87997 23.1498C0.0510441 29.5351 -1.02691 35.1744 1.02372 38.3465C2.17492 40.1087 3.93032 41.0013 6.24644 41.0013C6.64238 41.0013 7.01543 40.9807 7.37704 40.9372C9.29951 40.7358 10.7368 39.6991 12.1306 38.692C13.8311 37.4562 15.5887 36.1837 18.7448 36.1356L19.1819 36.5178C19.7518 37.1335 21.2211 38.4334 23.4594 38.4334C24.3772 38.4334 25.2949 38.2046 26.1829 37.7583C26.7116 38.2046 27.3616 38.5982 28.1672 38.8385C28.3572 38.8957 28.5494 38.9324 28.7439 38.9484L30.4009 39.0743L30.6023 39.0811C32.1815 39.0811 33.3991 38.4723 34.2917 37.6782C35.1728 38.1153 36.0768 38.3396 36.9808 38.3396C39.2306 38.3396 40.693 37.0373 41.2629 36.4217L41.8282 35.9296C42.1143 35.8953 42.3821 35.8724 42.6201 35.8724C44.8973 35.8724 46.4788 37.0854 48.1746 38.3854C49.6279 39.4977 51.1316 40.6466 53.0701 40.848C53.45 40.8869 53.8276 40.9052 54.1915 40.9052C56.5191 40.9052 58.2768 40.0103 59.4188 38.248C61.4718 35.0805 60.3915 29.4344 56.5511 23.0445Z" fill="white"/>
<path d="M47.3574 33.3662C48.6253 34.0025 49.6896 34.8195 50.6394 35.5473C51.8157 36.4491 52.8227 37.2181 53.7474 37.3142C54.0014 37.3393 54.2577 37.3531 54.5026 37.3531C55.7797 37.3531 56.2992 36.9526 56.6906 36.3529C57.3383 35.3528 57.6175 32.2013 54.8368 26.8481L47.3574 33.3662Z" fill="#F9C769"/>
<path d="M6.67234 37.4104C7.62671 37.3097 8.4575 36.7398 9.73228 35.8175C10.6958 35.1171 11.8356 34.2909 13.3026 33.6387L5.61727 26.9443C2.84113 32.2952 3.12035 35.449 3.76575 36.4491C4.15482 37.0465 4.67892 37.4493 5.94913 37.4493C6.20317 37.4516 6.4389 37.4378 6.67234 37.4104Z" fill="#F9C769"/>
<path d="M30.6162 3.33228H29.7579C20.6857 3.33228 18.9211 5.21584 18.873 8.92347L27.7004 33.8584C27.7004 33.8607 28.1215 35.0348 29.1308 35.3895L30.6345 35.5039C30.6413 35.5039 30.6482 35.5039 30.6551 35.5039C32.1152 35.4765 32.6508 33.9065 32.6576 33.8904L32.6851 33.8149L41.5376 9.56658C41.485 5.81776 39.5534 3.33228 30.6162 3.33228Z" fill="#F9C769"/>
<path d="M54.323 18.616C53.641 17.1993 51.5377 14.1394 45.823 13.1003L37.998 34.5313C38.3642 34.346 38.6091 34.0988 38.703 33.9935L38.9318 33.7692L53.8218 20.7971C54.7716 20.067 54.4924 19.0417 54.3299 18.6343L54.323 18.616Z" fill="#F9C769"/>
<path d="M6.11517 18.7601C6.11517 18.7624 5.54987 20.0555 6.55688 20.8291L6.68276 20.9321L21.6437 33.9637L21.749 34.0804C21.8405 34.1811 22.0717 34.4123 22.4081 34.5953L14.6061 12.5579C9.06067 13.7525 6.84525 17.2107 6.11517 18.7601Z" fill="#F9C769"/>
<path d="M54.1914 40.9052C53.8275 40.9052 53.4499 40.8846 53.07 40.848C51.1315 40.6466 49.6278 39.4977 48.1745 38.3854C46.4786 37.0854 44.8972 35.8724 42.6199 35.8724C42.3018 35.8724 41.9448 35.9022 41.5351 35.9662L37.8984 36.5178L54.3905 22.1405L55.1458 22.8934L54.4454 22.0947L55.4456 21.2639L56.0956 22.2961C60.3113 28.9927 61.5517 34.957 59.4187 38.248C58.2766 40.0103 56.519 40.9052 54.1914 40.9052ZM44.1808 33.879C46.3619 34.3001 47.9891 35.5451 49.4539 36.6689C50.8042 37.7011 51.9531 38.5799 53.2874 38.7172C53.5941 38.747 53.8984 38.763 54.1914 38.763C55.7889 38.763 56.8806 38.2297 57.6221 37.0831C58.787 35.2842 58.7252 30.9518 54.9352 24.5024L44.1808 33.879Z" fill="#5E1F07"/>
<path d="M6.24592 41.0036C3.9298 41.0036 2.1744 40.111 1.0232 38.3488C-1.10754 35.0508 0.132916 29.0866 4.33947 22.3923L4.97114 21.3853L5.97586 22.1771L22.0514 36.1791L19.1242 36.1334C19.0578 36.1311 18.9915 36.1311 18.9274 36.1311C15.6546 36.1311 13.8626 37.4333 12.1301 38.6921C10.7363 39.6991 9.29899 40.7381 7.37652 40.9373C7.0172 40.9807 6.64186 41.0036 6.24592 41.0036ZM5.50211 24.6008C1.71896 31.048 1.65487 35.3804 2.8198 37.1816C3.56819 38.3282 4.65759 38.8637 6.24821 38.8637C6.55718 38.8637 6.85013 38.8477 7.14079 38.8111C8.51169 38.6692 9.60567 37.8773 10.8736 36.9596C12.2948 35.9274 13.9816 34.7007 16.5357 34.2109L5.50211 24.6008Z" fill="#5E1F07"/>
<path d="M30.6048 39.0811L30.4034 39.0742L28.7464 38.9484C28.5519 38.9324 28.3596 38.8957 28.1697 38.8385C25.3226 37.9894 24.3522 35.2453 24.2515 34.9341L15.5134 10.2509C15.4081 9.95337 15.3555 9.6444 15.3555 9.33315C15.3555 1.1306 22.2764 0 29.758 0H30.6048C34.5527 0 45.0439 0 45.0439 9.97168C45.0439 10.2944 44.9867 10.6125 44.8746 10.9192L36.077 35.0119C35.5849 36.5041 33.8638 39.0811 30.6048 39.0811ZM30.5407 36.9389L30.6002 36.9412L30.6048 38.0123V36.9435C32.6463 36.9435 33.7563 35.2201 34.0584 34.3116L42.8651 10.1868C42.8903 10.1182 42.904 10.0472 42.904 9.97626C42.904 4.48577 39.2262 2.14447 30.6048 2.14447H29.758C20.8185 2.14447 17.4954 4.09441 17.4954 9.33772C17.4954 9.40409 17.5068 9.47275 17.532 9.54141L26.2792 34.2498C26.3136 34.355 26.9498 36.2455 28.7876 36.7948C28.8334 36.8085 28.8723 36.8153 28.9112 36.8199L30.5407 36.9389Z" fill="#5E1F07"/>
<path d="M36.9831 38.3397C36.0585 38.3397 35.1316 38.1086 34.2322 37.6486C33.9781 37.5181 33.7286 37.3625 33.4723 37.1656L32.582 36.4882L33.2984 35.63C33.7813 35.0509 33.9918 34.5131 34.0582 34.3071L42.8718 10.1526L43.1259 9.32642L43.9864 9.40194C53.0793 10.1847 56.3543 15.1396 57.3407 17.2337C57.3659 17.2887 57.3911 17.3504 57.414 17.4077C58.1349 19.2111 58.1303 21.9598 55.7455 23.7953L41.2629 36.4218C40.6953 37.0398 39.2329 38.3397 36.9831 38.3397ZM35.6626 35.9481C36.1066 36.1152 36.5483 36.1998 36.9831 36.1998C38.4753 36.1998 39.4526 35.2386 39.7181 34.9434L39.8119 34.8518L54.3929 22.1429C56.2994 20.6736 55.5876 18.6001 55.4251 18.1973L55.4045 18.1446C54.6058 16.451 51.9807 12.5122 44.6204 11.6197L36.0791 35.012C36.0127 35.2157 35.8823 35.5499 35.6626 35.9481Z" fill="#5E1F07"/>
<path d="M23.4621 38.4333C21.2238 38.4333 19.7545 37.1334 19.1846 36.5177L4.57385 23.7905C1.97394 21.7994 2.47058 18.6937 3.10454 17.3342C4.17563 15.0639 7.61319 9.69924 16.4154 8.81811L17.3354 8.72656L17.5483 9.58252L26.2864 34.268C26.2886 34.2748 26.5312 35.0049 27.1377 35.7007L27.8884 36.5589L26.9821 37.2524C26.7212 37.4515 26.4694 37.614 26.2085 37.7444C25.3137 38.2022 24.3891 38.4333 23.4621 38.4333ZM15.7974 11.0495C8.69802 12.0543 5.92187 16.3798 5.04074 18.2451C5.03159 18.2657 3.96049 20.6299 5.92645 22.1358L20.7272 35.0347C21.0682 35.4146 22.0203 36.2934 23.4621 36.2934C23.8924 36.2934 24.3318 36.2111 24.769 36.0463C24.46 35.513 24.3044 35.085 24.2586 34.9477L15.7974 11.0495Z" fill="#5E1F07"/>
<path d="M77.0887 7.3603C81.8285 7.3603 86.9482 7.67842 92.4478 8.31009C92.7271 9.44984 92.8667 10.7567 92.8667 12.226C92.8667 13.114 92.7911 14.1645 92.6378 15.382C91.4111 15.263 89.8617 15.2104 88.5136 15.2104C86.6873 15.2104 85.234 15.3065 85.4514 15.4667C85.0715 18.0003 84.7557 22.2183 84.5016 25.8549C84.2476 29.4916 84.0828 32.8308 84.0073 35.8724C83.8036 35.9227 83.5885 35.9479 83.3619 35.9479C82.2725 35.9479 80.7437 35.6618 78.78 35.092C76.8163 34.5221 75.5553 33.9705 74.9968 33.4373V32.0297C74.9968 29.4207 75.1158 26.6056 75.3584 23.5892C75.5987 20.5727 75.9215 17.7851 76.3288 15.2241C75.1639 15.2996 73.198 15.4644 70.4355 15.7185C70.0304 14.9838 69.6803 13.931 69.3896 12.5624C69.0967 11.1938 68.9525 9.96479 68.9525 8.87539C68.9525 8.31924 68.9777 7.93704 69.028 7.73564C71.3853 7.48617 74.0722 7.3603 77.0887 7.3603ZM77.0887 5.27075C74.015 5.27075 71.2297 5.40349 68.806 5.66211L67.3596 5.81774L67.0048 7.22984C66.9064 7.61891 66.8652 8.11098 66.8652 8.87996C66.8652 10.1113 67.0277 11.5005 67.3481 13.0041C67.6846 14.5879 68.0965 15.8077 68.6069 16.7346L69.266 17.9293L70.6255 17.8057C71.8774 17.6913 72.9668 17.5952 73.8891 17.5151C73.6465 19.3849 73.4406 21.3646 73.2758 23.429C73.0309 26.4843 72.9073 29.3795 72.9073 32.0343V33.4418V34.3344L73.5527 34.9524C74.3858 35.7488 75.8185 36.4125 78.1964 37.1014C80.3706 37.7331 82.0596 38.0398 83.3596 38.0398C83.7555 38.0398 84.1423 37.994 84.5108 37.9024L86.0556 37.5179L86.0945 35.9273C86.1701 32.9246 86.3348 29.5855 86.5843 26.0037C86.7926 23.0033 87.0375 19.7351 87.3167 17.3182C87.6554 17.3091 88.0536 17.3022 88.5136 17.3022C89.9441 17.3022 91.3745 17.3617 92.4364 17.4624L94.4596 17.657L94.7113 15.6407C94.8738 14.343 94.9562 13.1941 94.9562 12.226C94.9562 10.5965 94.796 9.11341 94.4779 7.81345L94.1323 6.40135L92.6859 6.23428C87.129 5.59574 81.8811 5.27075 77.0887 5.27075Z" fill="#5E1F07"/>
<path d="M111.258 7.55024C116.225 7.55024 121.468 7.79055 125.574 8.27345C125.903 9.08593 126.43 11.1846 126.487 11.505C125.674 15.5354 125.073 19.4513 124.681 23.2527C124.288 27.0542 124.015 31.2996 123.864 35.9891C123.66 36.0394 123.471 36.0646 123.294 36.0646C122.205 36.0646 119.96 35.7785 117.969 35.2087C115.977 34.6388 115.401 34.0872 114.845 33.554C114.819 30.7916 114.934 27.7888 115.186 24.5435C115.437 21.3005 115.806 18.1696 116.289 15.1532C115.428 15.1783 113.977 15.2172 113.329 15.2676C112.684 15.3179 112.144 15.3568 111.714 15.382L109.23 15.4965C108.697 18.7418 108.292 21.9848 108.013 25.2301C107.734 28.4754 107.519 32.0732 107.368 36.028C107.164 36.0784 106.974 36.1035 106.798 36.1035C105.681 36.1035 104.832 35.8174 102.857 35.2476C100.879 34.6777 98.9063 34.1261 98.3502 33.5929C98.325 30.4757 98.4646 27.0977 98.769 23.461C99.0734 19.8243 99.7943 8.41306 99.8722 8.00568C102.934 7.70129 107.203 7.55024 111.258 7.55024ZM111.258 5.46069C106.878 5.46069 102.651 5.63005 99.6639 5.92758L98.1053 6.08321L97.8169 7.62348C97.7689 7.88667 97.7254 8.42222 97.3478 13.9653C97.112 17.4555 96.842 21.4103 96.6863 23.287C96.3774 26.9741 96.2355 30.446 96.2607 33.6112L96.2675 34.4946L96.9061 35.1057C97.7689 35.9296 99.332 36.4079 102.019 37.1815L102.278 37.2547L102.863 37.4241C104.509 37.9024 105.502 38.1908 106.798 38.1908C107.143 38.1908 107.505 38.145 107.873 38.0535L109.395 37.6735L109.455 36.1058C109.606 32.1922 109.821 28.5922 110.096 25.4086C110.32 22.7881 110.633 20.1356 111.029 17.5059L111.81 17.4693C112.277 17.4418 112.831 17.4029 113.494 17.3503C113.593 17.3434 113.716 17.3342 113.856 17.3274C113.542 19.6229 113.291 21.9871 113.103 24.381C112.847 27.6652 112.73 30.7572 112.755 33.5723L112.764 34.4534L113.403 35.0622C114.227 35.8495 115.096 36.5544 117.394 37.2135C119.539 37.8292 121.985 38.1496 123.294 38.1496C123.64 38.1496 123.999 38.1038 124.368 38.0123L125.901 37.6324L125.951 36.0532C126.102 31.4278 126.373 27.1915 126.759 23.4656C127.144 19.7465 127.741 15.8604 128.535 11.9147L128.613 11.5302L128.544 11.1434C128.464 10.6857 127.908 8.4657 127.51 7.48616L127.045 6.34183L125.819 6.19764C121.823 5.73075 116.518 5.46069 111.258 5.46069Z" fill="#5E1F07"/>
<path d="M146.076 7.77912C149.648 7.77912 152.349 8.83877 154.173 10.9535C155.997 13.0705 156.91 16.1945 156.91 20.3255C156.91 23.0879 156.301 25.6673 155.086 28.0612C153.868 30.4574 152.241 32.3707 150.2 33.8012C148.161 35.2339 145.961 35.9502 143.604 35.9502C141.121 35.9502 138.985 35.4375 137.198 34.4099C135.41 33.3823 134.062 31.9908 133.149 30.2286C132.236 28.4663 131.781 26.5095 131.781 24.3559C131.781 21.1884 132.314 18.355 133.378 15.8581C134.442 13.3612 136.044 11.3906 138.187 9.94648C140.329 8.50005 142.956 7.77912 146.076 7.77912ZM144.707 27.0908C145.416 27.0908 146.062 26.7681 146.645 26.1227C147.229 25.4773 147.678 24.6282 147.996 23.5754C148.312 22.5249 148.472 21.4264 148.472 20.2866C148.472 19.1217 148.225 18.1078 147.73 17.245C147.236 16.3845 146.558 15.9519 145.696 15.9519C144.581 15.9519 143.686 16.6545 143.016 18.0621C142.343 19.4696 142.009 21.2113 142.009 23.2894C142.009 24.4817 142.242 25.4132 142.711 26.0838C143.178 26.7567 143.844 27.0908 144.707 27.0908ZM146.076 5.68958C142.549 5.68958 139.503 6.53867 137.019 8.21396C134.548 9.88011 132.678 12.1756 131.458 15.0387C130.286 17.7828 129.693 20.9183 129.693 24.3559C129.693 26.8391 130.233 29.1369 131.295 31.1898C132.392 33.3045 134.028 34.9981 136.159 36.2226C138.258 37.4287 140.764 38.0398 143.604 38.0398C146.389 38.0398 149.012 37.1884 151.401 35.5131C153.715 33.8904 155.58 31.7025 156.949 29.0087C158.311 26.3287 159 23.4061 159 20.3255C159 15.6979 157.908 12.0864 155.757 9.58945C153.523 7.00098 150.266 5.68958 146.076 5.68958ZM144.707 25.0013C144.503 25.0013 144.485 24.9761 144.423 24.8891C144.3 24.7129 144.096 24.2735 144.096 23.2894C144.096 21.534 144.366 20.0784 144.899 18.9615C145.032 18.6846 145.373 18.0392 145.696 18.0392C145.723 18.0392 145.739 18.0415 145.744 18.0415C145.741 18.0437 145.815 18.101 145.918 18.2818C146.231 18.8265 146.382 19.481 146.382 20.2843C146.382 21.2158 146.252 22.1199 145.995 22.9712C145.769 23.7196 145.467 24.3101 145.094 24.7221C145.034 24.7884 144.833 25.0013 144.707 25.0013Z" fill="#5E1F07"/>
</svg>
