<svg width="110" height="110" viewBox="0 0 110 110" fill="none" xmlns="http://www.w3.org/2000/svg">
<path d="M23.0001 99.0004H12.7501C11.4903 99.0004 10.2821 98.5 9.39134 97.6092C8.50054 96.7184 8.0001 95.5102 8.0001 94.2504L8 77.0001C8 77.0001 72.1851 76.9946 74.94 77.0001C77.6949 77.0056 80.0055 74.695 80 71.9401C79.9945 69.1852 80 57.0001 80 57.0001H87.59C89.6201 56.9834 91.6082 57.5783 93.2955 58.7073C102.119 64.6117 102 85.1686 102 94.2404V99.0004H90.5001" stroke="#5E1F07" stroke-width="2" stroke-miterlimit="10" stroke-linecap="round" stroke-linejoin="round"/>
<path d="M91 102C91 100.615 90.5892 99.2613 89.8196 98.1099C89.0499 96.9586 87.956 96.0614 86.6764 95.5318C85.3967 95.0023 83.9887 94.8643 82.6305 95.1353C81.2724 95.4062 80.0251 96.0739 79.0466 97.054C78.068 98.034 77.4022 99.2822 77.1332 100.641C76.8643 101.999 77.0044 103.407 77.5358 104.686C78.0673 105.965 78.9661 107.057 80.1186 107.825C81.2711 108.593 82.6255 109.002 84.0104 109C84.9292 109 85.8389 108.819 86.6876 108.467C87.5363 108.115 88.3073 107.599 88.9565 106.949C89.6057 106.299 90.1203 105.527 90.4709 104.678C90.8216 103.829 91.0014 102.919 91 102V102Z" stroke="#5E1F07" stroke-width="2" stroke-miterlimit="10"/>
<path d="M37 99L77 99" stroke="#5E1F07" stroke-width="2" stroke-miterlimit="10" stroke-linecap="round"/>
<path d="M80 57V53" stroke="#5E1F07" stroke-width="2" stroke-miterlimit="10" stroke-linecap="round"/>
<path d="M66.7933 58H15.209C16.6401 47.7144 25.4235 38 41.0006 38C56.584 38 65.3658 47.6901 66.7933 58Z" fill="#F9C769"/>
<path d="M70 61C70 47.9764 59.7256 35 41 35C22.2745 35 12 48.0141 12 61" stroke="#5E1F07" stroke-width="2" stroke-miterlimit="10" stroke-linecap="round"/>
<path d="M8 61L74 61" stroke="#5E1F07" stroke-width="2" stroke-miterlimit="10" stroke-linecap="round"/>
<path d="M16.9075 65.9195C16.3642 65.3539 15.9272 64.7035 15.6094 64H66.3915C66.0741 64.7025 65.638 65.352 65.0958 65.9172C63.8534 67.2121 62.1558 67.9587 60.3732 68H21.6359C19.8516 67.9609 18.1516 67.215 16.9075 65.9195Z" fill="#F9C769"/>
<path d="M12.0015 61C11.9562 63.6055 12.9424 66.1224 14.7433 67.9976C16.5443 69.8728 19.0125 70.9527 21.6056 71H60.4044C62.9957 70.9501 65.4614 69.869 67.2602 67.9941C69.059 66.1192 70.0438 63.6038 69.9985 61" stroke="#5E1F07" stroke-width="2" stroke-miterlimit="10" stroke-linecap="round"/>
<path d="M41 34V30" stroke="#5E1F07" stroke-width="2" stroke-miterlimit="10" stroke-linecap="round"/>
<path d="M74 22.4662C74 18.1733 79.9092 17.9915 80.0001 21.8719C80.0001 26.1875 74 26 74 31H80" stroke="#5E1F07" stroke-width="2" stroke-miterlimit="10" stroke-linecap="round"/>
<path d="M89 31V19H87L84 25L84 27H88" stroke="#5E1F07" stroke-width="2" stroke-miterlimit="10" stroke-linecap="round" stroke-linejoin="round"/>
<path d="M96 37.561C95.543 38.0167 95.0662 38.4526 94.5695 38.8587C91.9461 41.0269 88.761 42.4103 85.3824 42.8492C82.0037 43.2881 78.5695 42.7644 75.4767 41.3388C72.384 39.9132 69.759 37.6438 67.9053 34.793C66.0516 31.9423 65.0448 28.6265 65.0015 25.2292C64.9581 21.8319 65.8798 18.4916 67.6601 15.5947C69.4405 12.6978 72.0066 10.3625 75.062 8.85883C78.1173 7.35513 81.5371 6.74445 84.9258 7.09739C88.3146 7.45032 91.3222 8.8992 94 11" stroke="#5E1F07" stroke-width="2" stroke-miterlimit="10" stroke-linecap="round"/>
<path d="M97 14V8" stroke="#5E1F07" stroke-width="2" stroke-miterlimit="10" stroke-linecap="round"/>
<path d="M97 14H91" stroke="#5E1F07" stroke-width="2" stroke-miterlimit="10" stroke-linecap="round"/>
<path d="M36.9997 101.948C36.9894 100.565 36.5699 99.2166 35.794 98.0721C35.0181 96.9276 33.9207 96.0385 32.6402 95.517C31.3596 94.9955 29.9533 94.8649 28.5986 95.1417C27.2439 95.4185 26.0016 96.0903 25.0282 97.0724C24.0549 98.0544 23.3942 99.3027 23.1295 100.66C22.8648 102.017 23.0079 103.422 23.5408 104.698C24.0737 105.974 24.9725 107.063 26.1239 107.829C27.2752 108.595 28.6275 109.002 30.0102 109C30.9334 109 31.8474 108.817 32.6995 108.462C33.5516 108.107 34.3249 107.586 34.9748 106.931C35.6247 106.275 36.1382 105.497 36.4857 104.642C36.8333 103.787 37.008 102.871 36.9997 101.948Z" stroke="#5E1F07" stroke-width="2" stroke-miterlimit="10"/>
<path d="M91.9051 60.7851C90.6351 59.9352 89.1386 59.4875 87.6105 59.5L87.59 59.5001H82.499C82.4986 60.6107 82.4982 61.9929 82.4979 63.4375C82.4973 66.8295 82.4973 70.5611 82.5 71.9351C82.5082 76.0746 79.0745 79.5083 74.935 79.5001C73.5609 79.4974 56.8305 79.4974 40.437 79.498C32.2417 79.4984 24.1325 79.4989 18.0721 79.4993L10.5 79.4999L10.5001 94.2504C10.5001 94.8472 10.7371 95.4195 11.1591 95.8414C11.581 96.2634 12.1533 96.5004 12.7501 96.5004H21.6481C22.0108 95.9497 22.4287 95.4335 22.8975 94.9606C24.2879 93.5577 26.0627 92.598 27.998 92.2025C29.9333 91.8071 31.9423 91.9937 33.7717 92.7387C35.601 93.4837 37.1688 94.7538 38.2772 96.3888C38.3023 96.4258 38.3272 96.4631 38.3518 96.5004H75.6481C76.0108 95.9497 76.4288 95.4335 76.8975 94.9606C78.2879 93.5577 80.0628 92.598 81.998 92.2025C83.9333 91.8071 85.9423 91.9937 87.7717 92.7387C89.601 93.4837 91.1688 94.7538 92.2772 96.3888C92.3023 96.4258 92.3272 96.4631 92.3518 96.5004H99.5001L99.5001 93.9243C99.5007 89.3462 99.5015 82.3023 98.4855 75.6643C97.9662 72.2714 97.1952 69.0879 96.0766 66.4507C94.9515 63.798 93.5566 61.8901 91.9051 60.7851Z" fill="#74913F"/>
</svg>
