<svg width="110" height="110" viewBox="0 0 110 110" fill="none" xmlns="http://www.w3.org/2000/svg">
<path d="M95.9998 80C91.1875 76.5 73 66 73 66C69 70.5 61.5062 74 54.9586 74C48.411 74 41 71 37 66C37 66 18.5 77 14 80.5C9.5 84 7.94106 89.672 8.00169 93.9151V106H101.998V93.9563C102.069 89.1268 100.812 83.5 95.9998 80ZM41 90V74L55 82L41 90ZM69 90L55 82L69 73.8939V90Z" fill="#E08561"/>
<path d="M55 68C67.1503 68 77 55.9117 77 41C77 26.0883 67.1503 14 55 14C42.8497 14 33 26.0883 33 41C33 55.9117 42.8497 68 55 68Z" fill="#F9C769"/>
<path d="M55 90C55.5523 90 56 89.5523 56 89C56 88.4477 55.5523 88 55 88C54.4477 88 54 88.4477 54 89C54 89.5523 54.4477 90 55 90Z" fill="#5E1F07"/>
<path d="M55 96C55.5523 96 56 95.5523 56 95C56 94.4477 55.5523 94 55 94C54.4477 94 54 94.4477 54 95C54 95.5523 54.4477 96 55 96Z" fill="#5E1F07"/>
<path d="M55 102C55.5523 102 56 101.552 56 101C56 100.448 55.5523 100 55 100C54.4477 100 54 100.448 54 101C54 101.552 54.4477 102 55 102Z" fill="#5E1F07"/>
<path d="M73.0699 63C73.0699 63 90.8874 72.3939 97.8063 77.8103C99.4424 79.1028 100.849 80.6565 101.968 82.4073C104.002 85.6727 105.054 89.4446 104.998 93.2802V109H5.0021V93.2802C4.94642 89.4446 5.99759 85.6727 8.03228 82.4073C9.15114 80.6565 10.5576 79.1028 12.1937 77.8103C19.1126 72.3939 36.9301 63 36.9301 63" stroke="#5E1F07" stroke-width="2" stroke-linecap="round" stroke-linejoin="round"/>
<path d="M55 71C68.8071 71 80 57.5685 80 41C80 24.4315 68.8071 11 55 11C41.1929 11 30 24.4315 30 41C30 57.5685 41.1929 71 55 71Z" stroke="#5E1F07" stroke-width="2" stroke-linecap="round" stroke-linejoin="round"/>
<path d="M41 74L55 81.9951L49.4682 85.1557L41 90V74Z" stroke="#5E1F07" stroke-width="2" stroke-linecap="round" stroke-linejoin="round"/>
<path d="M55 81.9951L69 90V74L55 81.9951Z" stroke="#5E1F07" stroke-width="2" stroke-linecap="round" stroke-linejoin="round"/>
</svg>
